# This file is brought to you by Roblox Corporation
# Generated by Roblox Studio

mtllib Corner.mtl

g Wall1

v 13 31 -14 
v 13 31 -13 
v 13 0.999998 -14 
v 13 0.999998 -13 
v -14 31 -13 
v 13 31 -13 
v -14 31 -14 
v 13 31 -14 
v 13 31 -13 
v -14 31 -13 
v 13 0.999998 -13 
v -14 0.999998 -13 
v -14 31 -13 
v -14 31 -14 
v -14 0.999998 -13 
v -14 0.999998 -14 
v -14 0.999998 -14 
v 13 0.999998 -14 
v -14 0.999998 -13 
v 13 0.999998 -13 
v -14 31 -14 
v 13 31 -14 
v -14 0.999998 -14 
v 13 0.999998 -14 

vn 1 0 0 
vn 1 0 0 
vn 1 0 0 
vn 1 0 0 
vn 0 1 0 
vn 0 1 0 
vn 0 1 0 
vn 0 1 0 
vn 0 0 1 
vn 0 0 1 
vn 0 0 1 
vn 0 0 1 
vn -1 0 0 
vn -1 0 0 
vn -1 0 0 
vn -1 0 0 
vn 0 -1 0 
vn 0 -1 0 
vn 0 -1 0 
vn 0 -1 0 
vn 0 0 -1 
vn 0 0 -1 
vn 0 0 -1 
vn 0 0 -1 

vt 2.375 -0.5 
vt 2.25 -0.5 
vt 2.375 -4.25 
vt 2.25 -4.25 
vt 5.625 -0.5 
vt 2.25 -0.5 
vt 5.625 -0.625 
vt 2.25 -0.625 
vt 5.625 -0.5 
vt 2.25 -0.5 
vt 5.625 -4.25 
vt 2.25 -4.25 
vt 2.375 -0.5 
vt 2.25 -0.5 
vt 2.375 -4.25 
vt 2.25 -4.25 
vt 5.625 -0.5 
vt 2.25 -0.5 
vt 5.625 -0.625 
vt 2.25 -0.625 
vt 5.625 -0.5 
vt 2.25 -0.5 
vt 5.625 -4.25 
vt 2.25 -4.25 

usemtl Wall1Mtl

f 1/1/1 2/2/2 3/3/3 
f 3/3/3 2/2/2 4/4/4 
f 5/5/5 6/6/6 7/7/7 
f 7/7/7 6/6/6 8/8/8 
f 9/9/9 10/10/10 11/11/11 
f 11/11/11 10/10/10 12/12/12 
f 13/13/13 14/14/14 15/15/15 
f 15/15/15 14/14/14 16/16/16 
f 17/17/17 18/18/18 19/19/19 
f 19/19/19 18/18/18 20/20/20 
f 21/21/21 22/22/22 23/23/23 
f 23/23/23 22/22/22 24/24/24 

g Ceiling1

v -14 32 -14 
v 14 32 -14 
v -14 31 -14 
v 14 31 -14 
v 14 32 14 
v 14 32 -14 
v -14 32 14 
v -14 32 -14 
v 14 32 -14 
v 14 32 14 
v 14 31 -14 
v 14 31 14 
v 14 32 14 
v -14 32 14 
v 14 31 14 
v -14 31 14 
v -14 31 14 
v -14 31 -14 
v 14 31 14 
v 14 31 -14 
v -14 32 14 
v -14 32 -14 
v -14 31 14 
v -14 31 -14 

vn 0 0 -1 
vn 0 0 -1 
vn 0 0 -1 
vn 0 0 -1 
vn 0 1 0 
vn 0 1 0 
vn 0 1 0 
vn 0 1 0 
vn 1 0 0 
vn 1 0 0 
vn 1 0 0 
vn 1 0 0 
vn 0 0 1 
vn 0 0 1 
vn 0 0 1 
vn 0 0 1 
vn 0 -1 0 
vn 0 -1 0 
vn 0 -1 0 
vn 0 -1 0 
vn -1 0 0 
vn -1 0 0 
vn -1 0 0 
vn -1 0 0 

vt 3.68871 3.12793 
vt 0.188706 3.12793 
vt 3.68871 3.00293 
vt 0.188706 3.00293 
vt 3.68871 3.12793 
vt 0.188706 3.12793 
vt 3.68871 -0.372069 
vt 0.188706 -0.372069 
vt 3.68871 3.12793 
vt 0.188706 3.12793 
vt 3.68871 3.00293 
vt 0.188706 3.00293 
vt 3.68871 3.12793 
vt 0.188706 3.12793 
vt 3.68871 3.00293 
vt 0.188706 3.00293 
vt 3.68871 3.12793 
vt 0.188706 3.12793 
vt 3.68871 -0.372069 
vt 0.188706 -0.372069 
vt 3.68871 3.12793 
vt 0.188706 3.12793 
vt 3.68871 3.00293 
vt 0.188706 3.00293 

usemtl Ceiling1Mtl

f 25/25/25 26/26/26 27/27/27 
f 27/27/27 26/26/26 28/28/28 
f 29/29/29 30/30/30 31/31/31 
f 31/31/31 30/30/30 32/32/32 
f 33/33/33 34/34/34 35/35/35 
f 35/35/35 34/34/34 36/36/36 
f 37/37/37 38/38/38 39/39/39 
f 39/39/39 38/38/38 40/40/40 
f 41/41/41 42/42/42 43/43/43 
f 43/43/43 42/42/42 44/44/44 
f 45/45/45 46/46/46 47/47/47 
f 47/47/47 46/46/46 48/48/48 

g Wall2

v 13 31 -14 
v 14 31 -14 
v 13 0.999998 -14 
v 14 0.999998 -14 
v 14 31 14 
v 14 31 -14 
v 13 31 14 
v 13 31 -14 
v 14 31 -14 
v 14 31 14 
v 14 0.999998 -14 
v 14 0.999998 14 
v 14 31 14 
v 13 31 14 
v 14 0.999998 14 
v 13 0.999998 14 
v 13 0.999998 14 
v 13 0.999998 -14 
v 14 0.999998 14 
v 14 0.999998 -14 
v 13 31 14 
v 13 31 -14 
v 13 0.999998 14 
v 13 0.999998 -14 

vn 0 0 -1 
vn 0 0 -1 
vn 0 0 -1 
vn 0 0 -1 
vn 0 1 0 
vn 0 1 0 
vn 0 1 0 
vn 0 1 0 
vn 1 0 0 
vn 1 0 0 
vn 1 0 0 
vn 1 0 0 
vn 0 0 1 
vn 0 0 1 
vn 0 0 1 
vn 0 0 1 
vn 0 -1 0 
vn 0 -1 0 
vn 0 -1 0 
vn 0 -1 0 
vn -1 0 0 
vn -1 0 0 
vn -1 0 0 
vn -1 0 0 

vt 5.75 -3.5 
vt 5.625 -3.5 
vt 5.75 -7.25 
vt 5.625 -7.25 
vt 9.125 -3.5 
vt 5.625 -3.5 
vt 9.125 -3.625 
vt 5.625 -3.625 
vt 9.125 -3.5 
vt 5.625 -3.5 
vt 9.125 -7.25 
vt 5.625 -7.25 
vt 5.75 -3.5 
vt 5.625 -3.5 
vt 5.75 -7.25 
vt 5.625 -7.25 
vt 9.125 -3.5 
vt 5.625 -3.5 
vt 9.125 -3.625 
vt 5.625 -3.625 
vt 9.125 -3.5 
vt 5.625 -3.5 
vt 9.125 -7.25 
vt 5.625 -7.25 

usemtl Wall1Mtl

f 49/49/49 50/50/50 51/51/51 
f 51/51/51 50/50/50 52/52/52 
f 53/53/53 54/54/54 55/55/55 
f 55/55/55 54/54/54 56/56/56 
f 57/57/57 58/58/58 59/59/59 
f 59/59/59 58/58/58 60/60/60 
f 61/61/61 62/62/62 63/63/63 
f 63/63/63 62/62/62 64/64/64 
f 65/65/65 66/66/66 67/67/67 
f 67/67/67 66/66/66 68/68/68 
f 69/69/69 70/70/70 71/71/71 
f 71/71/71 70/70/70 72/72/72 

g Floor1

v 14 0.999998 14 
v -14 0.999998 14 
v 14 -1.90735e-06 14 
v -14 -1.90735e-06 14 
v -14 0.999998 -14 
v -14 0.999998 14 
v 14 0.999998 -14 
v 14 0.999998 14 
v -14 0.999998 14 
v -14 0.999998 -14 
v -14 -1.90735e-06 14 
v -14 -1.90735e-06 -14 
v -14 0.999998 -14 
v 14 0.999998 -14 
v -14 -1.90735e-06 -14 
v 14 -1.90735e-06 -14 
v 14 -1.90735e-06 -14 
v 14 -1.90735e-06 14 
v -14 -1.90735e-06 -14 
v -14 -1.90735e-06 14 
v 14 0.999998 -14 
v 14 0.999998 14 
v 14 -1.90735e-06 -14 
v 14 -1.90735e-06 14 

vn 0 0 1 
vn 0 0 1 
vn 0 0 1 
vn 0 0 1 
vn 0 1 0 
vn 0 1 0 
vn 0 1 0 
vn 0 1 0 
vn -1 0 0 
vn -1 0 0 
vn -1 0 0 
vn -1 0 0 
vn 0 0 -1 
vn 0 0 -1 
vn 0 0 -1 
vn 0 0 -1 
vn 0 -1 0 
vn 0 -1 0 
vn 0 -1 0 
vn 0 -1 0 
vn 1 0 0 
vn 1 0 0 
vn 1 0 0 
vn 1 0 0 

vt 1.54366 2.92038 
vt -1.95634 2.92038 
vt 1.54366 2.79538 
vt -1.95634 2.79538 
vt 1.54366 2.92038 
vt -1.95634 2.92038 
vt 1.54366 -0.57962 
vt -1.95634 -0.57962 
vt 1.54366 2.92038 
vt -1.95634 2.92038 
vt 1.54366 2.79538 
vt -1.95634 2.79538 
vt 1.54366 2.92038 
vt -1.95634 2.92038 
vt 1.54366 2.79538 
vt -1.95634 2.79538 
vt 1.54366 2.92038 
vt -1.95634 2.92038 
vt 1.54366 -0.57962 
vt -1.95634 -0.57962 
vt 1.54366 2.92038 
vt -1.95634 2.92038 
vt 1.54366 2.79538 
vt -1.95634 2.79538 

usemtl Floor1Mtl

f 73/73/73 74/74/74 75/75/75 
f 75/75/75 74/74/74 76/76/76 
f 77/77/77 78/78/78 79/79/79 
f 79/79/79 78/78/78 80/80/80 
f 81/81/81 82/82/82 83/83/83 
f 83/83/83 82/82/82 84/84/84 
f 85/85/85 86/86/86 87/87/87 
f 87/87/87 86/86/86 88/88/88 
f 89/89/89 90/90/90 91/91/91 
f 91/91/91 90/90/90 92/92/92 
f 93/93/93 94/94/94 95/95/95 
f 95/95/95 94/94/94 96/96/96 

